<svg xmlns="http://www.w3.org/2000/svg" width="100%" height="35">
  <g>
    <path fill="#6F32F3" d="M39.512 23.288q-2.016 0-3.864-.528-1.848-.552-2.976-1.416l1.32-2.928q1.08.768 2.544 1.272 1.488.48 3 .48 1.152 0 1.848-.216.72-.24 1.056-.648a1.43 1.43 0 0 0 .336-.936q0-.672-.528-1.056-.528-.408-1.392-.648a21 21 0 0 0-1.92-.48 27 27 0 0 1-2.088-.576 9 9 0 0 1-1.896-.864 4.36 4.36 0 0 1-1.416-1.392q-.528-.864-.528-2.208 0-1.44.768-2.616.792-1.2 2.352-1.896 1.584-.72 3.96-.72 1.584 0 3.12.384 1.536.36 2.712 1.104l-1.2 2.952a9.8 9.8 0 0 0-2.352-.984 8.4 8.4 0 0 0-2.304-.336q-1.128 0-1.848.264t-1.032.696a1.54 1.54 0 0 0-.312.96q0 .648.528 1.056.528.384 1.392.624t1.896.48q1.056.24 2.088.552a8 8 0 0 1 1.92.84q.864.528 1.392 1.392.552.864.552 2.184 0 1.416-.792 2.592t-2.376 1.896q-1.56.72-3.96.72m15.665-.096q-2.064 0-3.672-.864a6.7 6.7 0 0 1-2.52-2.352q-.912-1.512-.912-3.432 0-1.944.912-3.432a6.5 6.5 0 0 1 2.52-2.352q1.608-.864 3.672-.864 2.04 0 3.648.864 1.608.84 2.52 2.328t.912 3.456q0 1.92-.912 3.432-.912 1.488-2.52 2.352t-3.648.864m0-3.072q.936 0 1.68-.432a3.1 3.1 0 0 0 1.176-1.224q.432-.816.432-1.92 0-1.128-.432-1.92a3.1 3.1 0 0 0-1.176-1.224 3.3 3.3 0 0 0-1.68-.432q-.936 0-1.68.432a3.27 3.27 0 0 0-1.2 1.224q-.432.792-.432 1.92 0 1.104.432 1.92.456.792 1.2 1.224a3.3 3.3 0 0 0 1.68.432m17.214 3.072q-1.704 0-2.928-.72t-1.872-2.184q-.648-1.488-.648-3.744 0-2.28.672-3.744.696-1.464 1.92-2.184t2.856-.72q1.824 0 3.264.816a5.9 5.9 0 0 1 2.304 2.304q.864 1.488.864 3.528 0 2.016-.864 3.504a6.1 6.1 0 0 1-2.304 2.328q-1.44.816-3.264.816M64.76 23V5.192h3.744v7.512l-.24 3.816.072 3.84V23zm6.984-2.88q.936 0 1.656-.432a3.1 3.1 0 0 0 1.176-1.224q.456-.816.456-1.92 0-1.128-.456-1.92A3.1 3.1 0 0 0 73.4 13.4q-.72-.432-1.656-.432t-1.68.432a3.1 3.1 0 0 0-1.176 1.224q-.432.792-.432 1.92 0 1.104.432 1.92.432.792 1.176 1.224a3.3 3.3 0 0 0 1.68.432M81.33 23V10.088h3.576v3.648l-.504-1.056q.576-1.368 1.848-2.064 1.272-.72 3.096-.72v3.456a4 4 0 0 0-.432-.024 3 3 0 0 0-.408-.024q-1.536 0-2.496.888-.936.864-.936 2.712V23zm16.556.192q-2.208 0-3.888-.864-1.656-.864-2.568-2.352-.912-1.512-.912-3.432 0-1.944.888-3.432a6.35 6.35 0 0 1 2.472-2.352q1.56-.864 3.528-.864 1.896 0 3.408.816a5.9 5.9 0 0 1 2.424 2.304q.888 1.488.888 3.576 0 .216-.024.504l-.048.504H93.566v-2.184h8.52l-1.44.648q0-1.008-.408-1.752a2.9 2.9 0 0 0-1.128-1.152q-.72-.432-1.68-.432t-1.704.432q-.72.408-1.128 1.176-.408.744-.408 1.776v.576q0 1.056.456 1.872.48.792 1.32 1.224.864.408 2.016.408 1.032 0 1.8-.312a4.4 4.4 0 0 0 1.44-.936l1.992 2.16q-.888 1.008-2.232 1.56-1.344.528-3.096.528M113.68 23V6.2h3.216l7.152 11.856h-1.704L129.376 6.2h3.192l.048 16.8h-3.648l-.024-11.208h.672L124 21.224h-1.752l-5.736-9.432h.816V23zm22.657 0V10.088h3.744V23zm1.872-14.712q-1.032 0-1.68-.6a1.95 1.95 0 0 1-.648-1.488q0-.888.648-1.488t1.68-.6 1.68.576q.648.552.648 1.44 0 .936-.648 1.56-.624.6-1.68.6m21.883 1.608q1.536 0 2.712.624 1.2.6 1.872 1.872.696 1.248.696 3.216V23h-3.744v-6.816q0-1.56-.648-2.304t-1.824-.744q-.816 0-1.464.384-.648.36-1.008 1.104t-.36 1.896V23h-3.744v-6.816q0-1.56-.648-2.304-.624-.744-1.8-.744-.816 0-1.464.384-.648.36-1.008 1.104t-.36 1.896V23h-3.744V10.088h3.576v3.528l-.672-1.032q.672-1.32 1.896-1.992 1.248-.696 2.832-.696 1.776 0 3.096.912 1.344.888 1.776 2.736l-1.32-.36a5.2 5.2 0 0 1 2.064-2.4q1.44-.888 3.288-.888M17.145 19.509a5.5 5.5 0 0 0-4.77-2.759h-2.75a5.5 5.5 0 0 0-4.77 2.759A8.23 8.23 0 0 0 11 22.25a8.25 8.25 0 0 0 6.145-2.741M0 14a11 11 0 1 1 22 0 11 11 0 0 1-22 0m11 .688A3.094 3.094 0 1 0 11 8.5a3.094 3.094 0 0 0 0 6.188"/>
  </g><rect y="32" width="100%" height="2" fill="#6f32f380"/>
</svg>