<svg xmlns="http://www.w3.org/2000/svg" width="100%" height="40" fill="none">
  <g>
    <path fill="#6F32F3" d="M42.032 29.288q-1.944 0-3.624-.624a8.7 8.7 0 0 1-2.88-1.824 8.6 8.6 0 0 1-1.92-2.76q-.672-1.584-.672-3.48t.672-3.48a8.6 8.6 0 0 1 1.92-2.76 8.6 8.6 0 0 1 2.904-1.8q1.656-.648 3.624-.648 2.184 0 3.936.768a7.57 7.57 0 0 1 2.976 2.208l-2.496 2.304q-.864-.984-1.92-1.464a5.3 5.3 0 0 0-2.304-.504q-1.176 0-2.16.384a4.9 4.9 0 0 0-1.704 1.104 5.2 5.2 0 0 0-1.128 1.704q-.384.984-.384 2.184t.384 2.184a5.2 5.2 0 0 0 1.128 1.704q.72.72 1.704 1.104a5.9 5.9 0 0 0 2.16.384q1.248 0 2.304-.48 1.056-.504 1.92-1.512l2.496 2.304a7.8 7.8 0 0 1-2.976 2.232q-1.752.768-3.96.768m14.996-.096q-2.064 0-3.672-.864a6.7 6.7 0 0 1-2.52-2.352q-.912-1.512-.912-3.432 0-1.944.912-3.432a6.5 6.5 0 0 1 2.52-2.352q1.608-.864 3.672-.864 2.04 0 3.648.864 1.608.84 2.52 2.328t.912 3.456q0 1.92-.912 3.432-.912 1.488-2.52 2.352t-3.648.864m0-3.072q.936 0 1.68-.432a3.1 3.1 0 0 0 1.176-1.224q.432-.816.432-1.92 0-1.128-.432-1.92a3.1 3.1 0 0 0-1.176-1.224 3.3 3.3 0 0 0-1.68-.432q-.936 0-1.68.432a3.27 3.27 0 0 0-1.2 1.224q-.432.792-.432 1.92 0 1.104.432 1.92.456.792 1.2 1.224a3.3 3.3 0 0 0 1.68.432m17.43-10.224q1.537 0 2.737.624 1.224.6 1.92 1.872.696 1.248.696 3.216V29h-3.744v-6.816q0-1.56-.696-2.304-.672-.744-1.92-.744-.888 0-1.608.384-.696.36-1.104 1.128-.384.768-.384 1.968V29H66.61V16.088h3.576v3.576l-.672-1.08a4.8 4.8 0 0 1 1.992-1.992q1.296-.696 2.952-.696m14.027 13.296q-2.28 0-3.552-1.152-1.272-1.176-1.272-3.48V13.232h3.744v11.28q0 .816.432 1.272.432.432 1.176.432.888 0 1.512-.48l1.008 2.64q-.576.408-1.392.624a7 7 0 0 1-1.656.192m-6.816-9.936v-2.88h8.952v2.88zM101.554 29v-2.52l-.24-.552v-4.512q0-1.2-.744-1.872-.72-.672-2.232-.672-1.032 0-2.04.336-.984.312-1.68.864l-1.344-2.616q1.056-.744 2.544-1.152t3.024-.408q2.952 0 4.584 1.392t1.632 4.344V29zm-3.936.192q-1.512 0-2.592-.504-1.08-.528-1.656-1.416a3.6 3.6 0 0 1-.576-1.992q0-1.152.552-2.016.576-.864 1.8-1.344 1.224-.504 3.192-.504h3.432V23.6h-3.024q-1.32 0-1.824.432-.48.432-.48 1.08 0 .72.552 1.152.576.408 1.56.408.936 0 1.68-.432.744-.456 1.08-1.32l.576 1.728q-.408 1.248-1.488 1.896t-2.784.648m16.109 0q-2.28 0-3.552-1.152-1.272-1.176-1.272-3.48V13.232h3.744v11.28q0 .816.432 1.272.432.432 1.176.432.888 0 1.512-.48l1.008 2.64q-.576.408-1.392.624a7 7 0 0 1-1.656.192m-6.816-9.936v-2.88h8.952v2.88zm17.711 9.936q-2.064 0-3.672-.864a6.7 6.7 0 0 1-2.52-2.352q-.912-1.512-.912-3.432 0-1.944.912-3.432a6.5 6.5 0 0 1 2.52-2.352q1.608-.864 3.672-.864 2.04 0 3.648.864 1.608.84 2.52 2.328t.912 3.456q0 1.92-.912 3.432-.912 1.488-2.52 2.352t-3.648.864m0-3.072q.936 0 1.68-.432a3.1 3.1 0 0 0 1.176-1.224q.432-.816.432-1.92 0-1.128-.432-1.92a3.1 3.1 0 0 0-1.176-1.224 3.3 3.3 0 0 0-1.68-.432q-.936 0-1.68.432a3.27 3.27 0 0 0-1.2 1.224q-.432.792-.432 1.92 0 1.104.432 1.92.456.792 1.2 1.224a3.3 3.3 0 0 0 1.68.432M2.063 12C.923 12 0 12.952 0 14.125c0 .668.305 1.297.825 1.7l8.938 6.906c.734.567 1.74.567 2.475 0l8.937-6.906c.52-.403.825-1.031.825-1.7C22 12.952 21.076 12 19.938 12zM0 17.844v8.323C0 27.729 1.233 29 2.75 29h16.5c1.517 0 2.75-1.27 2.75-2.833v-8.323l-8.525 6.587a4.03 4.03 0 0 1-4.95 0z"/>
  </g><rect y="37" width="100%" height="2" fill="#6f32f380"/>
</svg>