<svg xmlns="http://www.w3.org/2000/svg" width="100%" height="40" fill="none">
  <g>
    <path fill="#6F32F3" d="M8.25 11.143C8.25 9.96 9.174 9 10.313 9h1.374c1.14 0 2.063.96 2.063 2.143v15.714c0 1.183-.924 2.143-2.062 2.143h-1.376c-1.138 0-2.063-.96-2.062-2.143zM0 19.714c0-1.183.924-2.143 2.063-2.143h1.374c1.14 0 2.063.96 2.063 2.143v7.143C5.5 28.04 4.576 29 3.438 29H2.062C.925 29 0 28.04 0 26.857zm18.563-7.857h1.375c1.138 0 2.062.96 2.062 2.143v12.857C22 28.04 21.076 29 19.938 29h-1.375c-1.14 0-2.063-.96-2.063-2.143V14c0-1.183.924-2.143 2.063-2.143M37.568 17.968h8.088v3.024h-8.088zm.288 6.912H47V28H33.992V11.2h12.696v3.12h-8.832zm16.247 3.312q-1.656 0-3.192-.384-1.512-.408-2.4-1.008l1.248-2.688q.888.552 2.088.912a9 9 0 0 0 2.4.336q1.296 0 1.824-.312.552-.312.552-.864 0-.456-.432-.672-.408-.24-1.104-.36t-1.536-.24a21 21 0 0 1-1.656-.312 6 6 0 0 1-1.536-.624 3.24 3.24 0 0 1-1.128-1.104q-.408-.696-.408-1.8 0-1.224.696-2.16.72-.936 2.064-1.464 1.344-.552 3.216-.552 1.32 0 2.688.288t2.28.84l-1.248 2.664a6.1 6.1 0 0 0-1.896-.744 8 8 0 0 0-1.824-.216q-1.248 0-1.824.336t-.576.864q0 .48.408.72.432.24 1.128.384t1.512.264q.84.096 1.68.312t1.512.624q.696.384 1.128 1.08.432.672.432 1.776 0 1.2-.72 2.136-.72.912-2.088 1.44-1.344.528-3.288.528m13.686 0q-2.28 0-3.552-1.152-1.272-1.176-1.272-3.48V12.232h3.744v11.28q0 .816.432 1.272.432.432 1.176.432.888 0 1.512-.48l1.008 2.64q-.576.408-1.392.624a7 7 0 0 1-1.656.192m-6.816-9.936v-2.88h8.952v2.88zM80.86 28v-2.52l-.24-.552v-4.512q0-1.2-.744-1.872-.72-.672-2.232-.672-1.032 0-2.04.336-.984.312-1.68.864l-1.344-2.616q1.056-.744 2.544-1.152t3.024-.408q2.952 0 4.584 1.392t1.632 4.344V28zm-3.936.192q-1.512 0-2.592-.504-1.08-.528-1.656-1.416a3.6 3.6 0 0 1-.576-1.992q0-1.152.552-2.016.576-.864 1.8-1.344 1.224-.504 3.192-.504h3.432V22.6H78.05q-1.32 0-1.824.432-.48.432-.48 1.08 0 .72.552 1.152.576.408 1.56.408.936 0 1.68-.432.744-.456 1.08-1.32l.576 1.728q-.408 1.248-1.488 1.896t-2.784.648m16.108 0q-2.28 0-3.552-1.152-1.272-1.176-1.272-3.48V12.232h3.744v11.28q0 .816.432 1.272.432.432 1.176.432.888 0 1.512-.48l1.008 2.64q-.576.408-1.392.624a7 7 0 0 1-1.656.192m-6.816-9.936v-2.88h8.952v2.88zM98.181 28V15.088h3.744V28zm-.312-14.568 3.24-3.456h4.032l-4.344 3.456zm11.875 14.76q-1.656 0-3.192-.384-1.512-.408-2.4-1.008l1.248-2.688q.888.552 2.088.912a9 9 0 0 0 2.4.336q1.296 0 1.824-.312.552-.312.552-.864 0-.456-.432-.672-.408-.24-1.104-.36a54 54 0 0 0-1.536-.24 21 21 0 0 1-1.656-.312 6 6 0 0 1-1.536-.624 3.24 3.24 0 0 1-1.128-1.104q-.408-.696-.408-1.8 0-1.224.696-2.16.72-.936 2.064-1.464 1.344-.552 3.216-.552 1.32 0 2.688.288t2.28.84l-1.248 2.664a6.1 6.1 0 0 0-1.896-.744 8 8 0 0 0-1.824-.216q-1.248 0-1.824.336t-.576.864q0 .48.408.72.432.24 1.128.384t1.512.264q.84.096 1.68.312t1.512.624q.696.384 1.128 1.08.432.672.432 1.776 0 1.2-.72 2.136-.72.912-2.088 1.44-1.344.528-3.288.528m13.686 0q-2.28 0-3.552-1.152-1.272-1.176-1.272-3.48V12.232h3.744v11.28q0 .816.432 1.272.432.432 1.176.432.888 0 1.512-.48l1.008 2.64q-.576.408-1.392.624a7 7 0 0 1-1.656.192m-6.816-9.936v-2.88h8.952v2.88zM128.58 28V15.088h3.744V28zm1.872-14.712q-1.032 0-1.68-.6a1.95 1.95 0 0 1-.648-1.488q0-.888.648-1.488t1.68-.6 1.68.576q.648.552.648 1.44 0 .936-.648 1.56-.624.6-1.68.6m11.586 14.904q-2.088 0-3.72-.84-1.632-.864-2.568-2.376-.912-1.512-.912-3.432 0-1.944.912-3.432a6.4 6.4 0 0 1 2.568-2.352q1.632-.864 3.72-.864 2.04 0 3.552.864a5.13 5.13 0 0 1 2.232 2.424l-2.904 1.56q-.504-.912-1.272-1.344a3.2 3.2 0 0 0-1.632-.432q-.96 0-1.728.432t-1.224 1.224q-.432.792-.432 1.92t.432 1.92q.456.792 1.224 1.224a3.46 3.46 0 0 0 1.728.432q.888 0 1.632-.408.768-.432 1.272-1.368l2.904 1.584a5.3 5.3 0 0 1-2.232 2.424q-1.512.84-3.552.84m15.86-.192v-2.52l-.24-.552v-4.512q0-1.2-.744-1.872-.72-.672-2.232-.672-1.032 0-2.04.336-.984.312-1.68.864l-1.344-2.616q1.056-.744 2.544-1.152t3.024-.408q2.952 0 4.584 1.392t1.632 4.344V28zm-3.936.192q-1.512 0-2.592-.504-1.08-.528-1.656-1.416a3.6 3.6 0 0 1-.576-1.992q0-1.152.552-2.016.576-.864 1.8-1.344 1.224-.504 3.192-.504h3.432V22.6h-3.024q-1.32 0-1.824.432-.48.432-.48 1.08 0 .72.552 1.152.576.408 1.56.408.936 0 1.68-.432.744-.456 1.08-1.32l.576 1.728q-.408 1.248-1.488 1.896t-2.784.648m15.173 0q-1.656 0-3.192-.384-1.512-.408-2.4-1.008l1.248-2.688q.888.552 2.088.912a9 9 0 0 0 2.4.336q1.296 0 1.824-.312.552-.312.552-.864 0-.456-.432-.672-.408-.24-1.105-.36-.695-.12-1.535-.24a21 21 0 0 1-1.656-.312 6 6 0 0 1-1.536-.624 3.24 3.24 0 0 1-1.128-1.104q-.409-.696-.409-1.8 0-1.224.697-2.16.72-.936 2.064-1.464 1.344-.552 3.216-.552 1.32 0 2.688.288t2.28.84l-1.248 2.664a6.1 6.1 0 0 0-1.896-.744 8 8 0 0 0-1.824-.216q-1.248 0-1.824.336t-.576.864q0 .48.408.72.432.24 1.128.384t1.512.264q.84.096 1.68.312t1.512.624q.696.384 1.128 1.08.432.672.432 1.776 0 1.2-.72 2.136-.72.912-2.088 1.44-1.344.528-3.288.528"/>
  </g><rect y="37" width="100%" height="2" fill="#6f32f380"/>
</svg>