<svg xmlns="http://www.w3.org/2000/svg" width="100%" height="40" fill="none">
  <g>
    <path fill="#6F32F3" d="M37.472 27V13.368h-5.376V10.2h14.64v3.168H41.36V27zm16.187.192q-2.208 0-3.888-.864-1.656-.864-2.568-2.352-.912-1.512-.912-3.432 0-1.944.888-3.432a6.35 6.35 0 0 1 2.472-2.352q1.56-.864 3.528-.864 1.896 0 3.408.816a5.9 5.9 0 0 1 2.424 2.304q.888 1.488.888 3.576 0 .216-.024.504l-.048.504H49.34v-2.184h8.52l-1.44.648q0-1.008-.408-1.752a2.9 2.9 0 0 0-1.128-1.152q-.72-.432-1.68-.432t-1.704.432q-.72.408-1.128 1.176-.408.744-.408 1.776v.576q0 1.056.456 1.872.48.792 1.32 1.224.864.408 2.016.408 1.032 0 1.8-.312a4.4 4.4 0 0 0 1.44-.936l1.992 2.16q-.888 1.008-2.232 1.56-1.344.528-3.096.528m14.973 0q-2.088 0-3.72-.84-1.632-.864-2.568-2.376-.912-1.512-.912-3.432 0-1.944.912-3.432a6.4 6.4 0 0 1 2.568-2.352q1.632-.864 3.72-.864 2.04 0 3.552.864a5.13 5.13 0 0 1 2.232 2.424l-2.904 1.56q-.504-.912-1.272-1.344a3.2 3.2 0 0 0-1.632-.432q-.96 0-1.728.432t-1.224 1.224q-.432.792-.432 1.92t.432 1.92q.456.792 1.224 1.224a3.46 3.46 0 0 0 1.728.432q.888 0 1.632-.408.768-.432 1.272-1.368l2.904 1.584a5.3 5.3 0 0 1-2.232 2.424q-1.512.84-3.552.84M84.42 13.896q1.536 0 2.736.624 1.224.6 1.92 1.872.696 1.248.696 3.216V27h-3.744v-6.816q0-1.56-.696-2.304-.672-.744-1.92-.744-.888 0-1.608.384-.696.36-1.104 1.128-.384.768-.384 1.968V27h-3.744V14.088h3.576v3.576l-.672-1.08a4.8 4.8 0 0 1 1.992-1.992q1.296-.696 2.952-.696m14.983 13.296q-2.064 0-3.672-.864a6.7 6.7 0 0 1-2.52-2.352q-.912-1.512-.912-3.432 0-1.944.912-3.432a6.5 6.5 0 0 1 2.52-2.352q1.608-.864 3.672-.864 2.04 0 3.648.864 1.608.84 2.52 2.328t.912 3.456q0 1.92-.912 3.432-.912 1.488-2.52 2.352t-3.648.864m0-3.072q.936 0 1.68-.432a3.1 3.1 0 0 0 1.176-1.224q.432-.816.432-1.92 0-1.128-.432-1.92a3.1 3.1 0 0 0-1.176-1.224 3.3 3.3 0 0 0-1.68-.432q-.936 0-1.68.432a3.27 3.27 0 0 0-1.2 1.224q-.432.792-.432 1.92 0 1.104.432 1.92.456.792 1.2 1.224a3.3 3.3 0 0 0 1.68.432m9.583 2.88V9.192h3.744V27zm13.363.192q-2.064 0-3.672-.864a6.7 6.7 0 0 1-2.52-2.352q-.912-1.512-.912-3.432 0-1.944.912-3.432a6.5 6.5 0 0 1 2.52-2.352q1.608-.864 3.672-.864 2.04 0 3.648.864 1.608.84 2.52 2.328t.912 3.456q0 1.92-.912 3.432-.912 1.488-2.52 2.352t-3.648.864m0-3.072q.936 0 1.68-.432a3.1 3.1 0 0 0 1.176-1.224q.432-.816.432-1.92 0-1.128-.432-1.92a3.1 3.1 0 0 0-1.176-1.224 3.3 3.3 0 0 0-1.68-.432q-.936 0-1.68.432a3.27 3.27 0 0 0-1.2 1.224q-.432.792-.432 1.92 0 1.104.432 1.92.456.792 1.2 1.224a3.3 3.3 0 0 0 1.68.432m15.654 7.728q-1.824 0-3.528-.456-1.68-.432-2.808-1.32l1.488-2.688q.816.672 2.064 1.056 1.272.408 2.496.408 1.992 0 2.88-.888.912-.888.912-2.64v-1.944l.24-3.24-.048-3.264v-2.784h3.552V24.84q0 3.6-1.872 5.304t-5.376 1.704m-.576-5.472q-1.8 0-3.264-.768a6.35 6.35 0 0 1-2.328-2.184q-.864-1.416-.864-3.288 0-1.896.864-3.288a6.1 6.1 0 0 1 2.328-2.184q1.464-.768 3.264-.768 1.632 0 2.88.672 1.248.648 1.944 2.04.696 1.368.696 3.528 0 2.136-.696 3.528-.696 1.368-1.944 2.04t-2.88.672m.744-3.072q.984 0 1.752-.384a3 3 0 0 0 1.2-1.128q.432-.72.432-1.656 0-.96-.432-1.656a2.86 2.86 0 0 0-1.2-1.104q-.768-.408-1.752-.408t-1.752.408a3 3 0 0 0-1.224 1.104q-.432.696-.432 1.656 0 .936.432 1.656.456.72 1.224 1.128.768.384 1.752.384M148.736 27V14.088h3.744V27zm1.872-14.712q-1.032 0-1.68-.6a1.95 1.95 0 0 1-.648-1.488q0-.888.648-1.488t1.68-.6 1.68.576q.648.552.648 1.44 0 .936-.648 1.56-.624.6-1.68.6M163.875 27v-2.52l-.24-.552v-4.512q0-1.2-.744-1.872-.72-.672-2.232-.672-1.032 0-2.04.336-.984.312-1.68.864l-1.344-2.616q1.056-.744 2.544-1.152t3.024-.408q2.952 0 4.584 1.392t1.632 4.344V27zm-3.936.192q-1.512 0-2.592-.504-1.08-.528-1.656-1.416a3.6 3.6 0 0 1-.576-1.992q0-1.152.552-2.016.576-.864 1.8-1.344 1.224-.504 3.192-.504h3.432V21.6h-3.024q-1.32 0-1.824.432-.48.432-.48 1.08 0 .72.552 1.152.576.408 1.56.408.936 0 1.68-.432.744-.456 1.08-1.32l.576 1.728q-.408 1.248-1.488 1.896t-2.784.648m15.172 0q-1.656 0-3.192-.384-1.512-.408-2.4-1.008l1.248-2.688q.888.552 2.088.912a9 9 0 0 0 2.4.336q1.296 0 1.824-.312.552-.312.552-.864 0-.456-.432-.672-.408-.24-1.104-.36a54 54 0 0 0-1.536-.24 21 21 0 0 1-1.656-.312 6 6 0 0 1-1.536-.624 3.24 3.24 0 0 1-1.128-1.104q-.408-.696-.408-1.8 0-1.224.696-2.16.72-.936 2.064-1.464 1.344-.552 3.216-.552 1.32 0 2.688.288t2.28.84l-1.248 2.664a6.1 6.1 0 0 0-1.896-.744 8 8 0 0 0-1.824-.216q-1.248 0-1.824.336t-.576.864q0 .48.408.72.432.24 1.128.384t1.512.264q.84.096 1.68.312t1.512.624q.696.384 1.128 1.08.432.672.432 1.776 0 1.2-.72 2.136-.72.912-2.088 1.44-1.344.528-3.288.528M2.057 7.192a.66.66 0 0 1 .83-.082l4.885 3.254c.366.242.583.653.583 1.092v2.038l3.73 3.73a3.72 3.72 0 0 1 4.158.76l5.18 5.181a1.976 1.976 0 0 1 0 2.79l-2.468 2.469a1.976 1.976 0 0 1-2.79 0l-5.18-5.18a3.72 3.72 0 0 1-.76-4.158l-3.73-3.73H4.456c-.44 0-.85-.218-1.093-.584L.11 9.887a.66.66 0 0 1 .082-.83zm5.957 12.469a5.67 5.67 0 0 0 1.077 4.404l-3.9 3.903a2.958 2.958 0 0 1-4.181-4.183l5.562-5.566 1.446 1.442zM14.93 7.467c.825 0 1.618.152 2.345.432.411.156.485.678.177.99l-2.33 2.33a.66.66 0 0 0-.192.463v1.701a.66.66 0 0 0 .657.658h1.7a.66.66 0 0 0 .465-.193l2.33-2.33c.312-.308.833-.234.99.177.279.727.43 1.52.43 2.346a6.55 6.55 0 0 1-1.848 4.564l-2.017-2.017a5.67 5.67 0 0 0-4.975-1.578l-2.334-2.333v-1.22l-.008-.206a3.3 3.3 0 0 0-.431-1.434 6.58 6.58 0 0 1 5.04-2.354z"/>
  </g><rect y="37" width="100%" height="2" fill="#6f32f380"/>
</svg>