<svg xmlns="http://www.w3.org/2000/svg" width="48" height="48" fill="none"><path fill="#0277BD" d="M36.75 0h-25.5C5.037 0 0 5.037 0 11.25v25.5C0 42.963 5.037 48 11.25 48h25.5C42.963 48 48 42.963 48 36.75v-25.5C48 5.037 42.963 0 36.75 0"/><path fill="#EBEBEB" d="m10.078 19.247.537 5.99h13.402v-5.99zM24.018 7.125H9l.544 5.99h14.474zM24.018 41.033v-6.231l-.027.007-6.67-1.801-.426-4.777h-6.0120000000000005l.839 9.404L23.99 41.04z"/><path fill="#fff" d="m31.372 25.236-.695 7.768-6.68 1.803v6.23l12.278-3.402.09-1.012 1.407-15.768.147-1.608 1.08-12.122H23.998v5.99h8.44l-.546 6.132h-7.894v5.99z"/></svg>