<svg xmlns="http://www.w3.org/2000/svg" width="48" height="48" fill="none"><path fill="#2396ED" d="M36.75 0h-25.5C5.037 0 0 5.037 0 11.25v25.5C0 42.963 5.037 48 11.25 48h25.5C42.963 48 48 42.963 48 36.75v-25.5C48 5.037 42.963 0 36.75 0"/><path fill="#fff" d="M26.473 22.898h3.884v-3.514h-3.884zm-4.625 0h3.885v-3.514h-3.885zm-4.531 0H21.2v-3.514h-3.884zm-4.532 0h3.792v-3.514h-3.792zm-4.624 0h3.884v-3.514H8.161zm4.624-4.254h3.792v-3.515h-3.792zm4.532 0H21.2v-3.515h-3.884zm4.531 0h3.885v-3.515h-3.885zm0-4.255h3.885v-3.514h-3.885zm20.902 6.937s-1.665-1.573-5.087-1.018c-.37-2.682-3.237-4.254-3.237-4.254s-2.682 3.237-.74 6.844c-.554.278-1.48.648-2.867.648H5.386c-.462 1.757-.462 13.41 12.3 13.41 9.157 0 16-4.254 19.237-12.023 4.81.37 5.827-3.607 5.827-3.607"/></svg>