<svg xmlns="http://www.w3.org/2000/svg" width="48" height="48" fill="none"><path fill="#242938" d="M36.75 0h-25.5C5.037 0 0 5.037 0 11.25v25.5C0 42.963 5.037 48 11.25 48h25.5C42.963 48 48 42.963 48 36.75v-25.5C48 5.037 42.963 0 36.75 0"/><path fill="#0ACF83" d="M17.69 42.75c3.45 0 6.25-2.8 6.25-6.25v-6.25h-6.25c-3.45 0-6.25 2.8-6.25 6.25s2.8 6.25 6.25 6.25"/><path fill="#A259FF" d="M11.44 24c0-3.45 2.8-6.25 6.25-6.25h6.25v12.5h-6.25c-3.45 0-6.25-2.8-6.25-6.25"/><path fill="#F24E1E" d="M11.44 11.5c0-3.45 2.8-6.25 6.25-6.25h6.25v12.5h-6.25c-3.45 0-6.25-2.8-6.25-6.25"/><path fill="#FF7262" d="M23.94 5.25h6.25c3.45 0 6.25 2.8 6.25 6.25s-2.8 6.25-6.25 6.25h-6.25z"/><path fill="#1ABCFE" d="M36.44 24c0 3.45-2.8 6.25-6.25 6.25s-6.25-2.8-6.25-6.25 2.8-6.25 6.25-6.25 6.25 2.8 6.25 6.25"/></svg>