<svg xmlns="http://www.w3.org/2000/svg" width="48" height="48" fill="none"><path fill="#F03C2E" d="M36.75 0h-25.5C5.037 0 0 5.037 0 11.25v25.5C0 42.963 5.037 48 11.25 48h25.5C42.963 48 48 42.963 48 36.75v-25.5C48 5.037 42.963 0 36.75 0"/><path fill="#fff" d="M42.042 22.33 25.669 5.958a2.413 2.413 0 0 0-3.414 0l-3.399 3.398 4.313 4.313a2.84 2.84 0 0 1 2.95.688 2.87 2.87 0 0 1 .681 2.968l4.157 4.157a2.865 2.865 0 0 1 3.591 1.614 2.875 2.875 0 0 1-4.688 3.132 2.88 2.88 0 0 1-.626-3.126l-3.876-3.876v10.201a2.874 2.874 0 1 1-3.302.544c.277-.277.585-.486.94-.627V19.048a2.872 2.872 0 0 1-1.56-3.769l-4.253-4.251L5.956 22.242a2.415 2.415 0 0 0 0 3.416L22.33 42.03a2.415 2.415 0 0 0 3.414 0l16.298-16.271a2.416 2.416 0 0 0 0-3.416"/></svg>