<svg xmlns="http://www.w3.org/2000/svg" width="48" height="48" fill="none"><path fill="#E14E1D" d="M36.75 0h-25.5C5.037 0 0 5.037 0 11.25v25.5C0 42.963 5.037 48 11.25 48h25.5C42.963 48 48 42.963 48 36.75v-25.5C48 5.037 42.963 0 36.75 0"/><path fill="#fff" d="m9 7.125 1.614 18.111h20.758l-.696 7.768-6.684 1.807-6.67-1.804-.447-4.988h-6.011l.86 9.615 12.267 3.407 12.283-3.407 1.647-18.386H16.092l-.548-6.133h22.92L39 7.125z"/><path fill="#EBEBEB" d="M24 7.125H9l1.614 18.111H24v-5.988h-7.908l-.548-6.133H24zM24 34.809l-.008.002-6.671-1.804-.446-4.988h-6.012l.86 9.615 12.268 3.407.009-.002z"/></svg>