<svg xmlns="http://www.w3.org/2000/svg" width="48" height="48" fill="none"><path fill="#F0DB4F" d="M36.75 0h-25.5C5.037 0 0 5.037 0 11.25v25.5C0 42.963 5.037 48 11.25 48h25.5C42.963 48 48 42.963 48 36.75v-25.5C48 5.037 42.963 0 36.75 0"/><path fill="#323330" d="m12.621 40.112 3.673-2.223c.71 1.257 1.354 2.32 2.9 2.32 1.482 0 2.417-.58 2.417-2.835V22.037h4.51v15.4c0 4.672-2.738 6.8-6.734 6.8-3.608 0-5.703-1.87-6.766-4.125M28.571 39.629l3.673-2.126c.967 1.578 2.224 2.738 4.447 2.738 1.869 0 3.06-.934 3.06-2.223 0-1.547-1.224-2.094-3.286-2.996l-1.127-.484c-3.255-1.385-5.414-3.125-5.414-6.798 0-3.383 2.578-5.961 6.606-5.961 2.867 0 4.93.999 6.411 3.609l-3.512 2.255c-.773-1.385-1.61-1.933-2.9-1.933-1.32 0-2.158.838-2.158 1.933 0 1.353.838 1.901 2.77 2.74l1.128.482c3.834 1.644 5.993 3.319 5.993 7.089 0 4.06-3.19 6.283-7.475 6.283-4.188 0-6.895-1.998-8.216-4.608"/></svg>