<svg xmlns="http://www.w3.org/2000/svg" width="48" height="48" fill="none"><path fill="#242938" d="M36.75 0h-25.5C5.037 0 0 5.037 0 11.25v25.5C0 42.963 5.037 48 11.25 48h25.5C42.963 48 48 42.963 48 36.75v-25.5C48 5.037 42.963 0 36.75 0"/><path fill="#fff" d="M22.772 5.26c-.08.007-.337.033-.568.051-5.326.48-10.315 3.355-13.475 7.772a18.56 18.56 0 0 0-3.31 8.193c-.15 1.03-.169 1.334-.169 2.73 0 1.397.018 1.701.169 2.731 1.019 7.042 6.03 12.959 12.826 15.15 1.217.393 2.5.66 3.959.822.568.062 3.024.062 3.592 0 2.519-.279 4.652-.902 6.756-1.976.323-.165.385-.209.34-.245-.028-.023-1.403-1.867-3.053-4.095l-2.998-4.05-3.758-5.562c-2.067-3.057-3.768-5.557-3.782-5.557-.015-.003-.03 2.467-.037 5.484-.011 5.282-.015 5.495-.08 5.62-.096.18-.17.252-.323.333-.118.059-.22.07-.774.07h-.634l-.168-.107a.7.7 0 0 1-.246-.267l-.077-.165.007-7.35.011-7.353.114-.143c.058-.077.183-.176.271-.224.15-.073.21-.08.843-.08.748 0 .873.029 1.067.242.055.058 2.09 3.123 4.523 6.814 2.434 3.691 5.763 8.732 7.398 11.206l2.969 4.498.15-.099c1.33-.865 2.739-2.097 3.853-3.38a18.67 18.67 0 0 0 4.413-9.586c.15-1.03.169-1.334.169-2.73 0-1.397-.018-1.701-.169-2.732-1.019-7.041-6.03-12.958-12.826-15.15-1.199-.388-2.474-.656-3.904-.817-.352-.037-2.775-.077-3.079-.048m7.676 11.342a.74.74 0 0 1 .37.432c.03.096.037 2.134.03 6.727l-.012 6.59-1.162-1.78-1.165-1.782v-4.791c0-3.098.014-4.84.036-4.923a.75.75 0 0 1 .363-.462c.15-.077.206-.085.781-.085.543 0 .638.008.759.074"/></svg>