<svg xmlns="http://www.w3.org/2000/svg" width="48" height="48" fill="none"><path fill="#242938" d="M36.75 0h-25.5C5.037 0 0 5.037 0 11.25v25.5C0 42.963 5.037 48 11.25 48h25.5C42.963 48 48 42.963 48 36.75v-25.5C48 5.037 42.963 0 36.75 0"/><path fill="#81CD39" d="M22.477 5.834a3.12 3.12 0 0 1 3.045 0c4.635 2.62 9.272 5.235 13.907 7.856.872.49 1.455 1.46 1.446 2.465v15.759c.006 1.046-.634 2.04-1.554 2.519q-6.929 3.909-13.858 7.818c-.94.538-2.166.496-3.078-.086q-2.079-1.203-4.158-2.404c-.283-.169-.602-.303-.802-.578.177-.238.493-.267.75-.371.578-.184 1.109-.48 1.64-.766.134-.092.298-.056.427.026 1.184.679 2.358 1.378 3.547 2.05.253.147.51-.048.727-.168 4.534-2.563 9.073-5.116 13.606-7.679a.45.45 0 0 0 .247-.443c.003-5.198.001-10.398.002-15.596a.49.49 0 0 0-.29-.486q-6.907-3.892-13.81-7.783a.48.48 0 0 0-.542-.001c-4.604 2.594-9.204 5.193-13.808 7.786a.48.48 0 0 0-.292.484v15.597a.44.44 0 0 0 .25.437q1.844 1.044 3.688 2.083c.693.373 1.543.594 2.306.309a1.75 1.75 0 0 0 1.132-1.644c.007-5.168-.003-10.337.005-15.504-.017-.23.2-.419.424-.397a77 77 0 0 1 1.771.001c.247-.005.416.242.386.473-.003 5.2.006 10.401-.004 15.602.002 1.386-.568 2.895-1.85 3.573-1.58.818-3.532.644-5.092-.14-1.35-.674-2.64-1.47-3.967-2.192-.922-.478-1.56-1.475-1.553-2.52V16.155c-.01-1.025.597-2.013 1.496-2.497q6.929-3.911 13.856-7.824"/><path fill="#81CD39" d="M26.507 16.75c2.015-.13 4.171-.077 5.985.916 1.403.76 2.181 2.357 2.206 3.916-.04.21-.259.326-.46.312-.584 0-1.17.008-1.754-.004-.248.01-.392-.219-.423-.438-.168-.746-.575-1.485-1.277-1.845-1.078-.54-2.328-.513-3.504-.502-.858.046-1.78.12-2.508.625-.558.382-.727 1.154-.528 1.776.188.446.703.59 1.124.723 2.428.634 5.001.571 7.383 1.407.986.34 1.95 1.003 2.288 2.035.441 1.384.248 3.038-.737 4.149-.798.914-1.96 1.411-3.12 1.681-1.543.345-3.144.353-4.711.2-1.473-.168-3.006-.555-4.143-1.558-.973-.845-1.448-2.16-1.401-3.43.011-.215.225-.364.43-.347a86 86 0 0 1 1.766.001c.235-.017.41.186.422.408.108.711.375 1.457.995 1.879 1.197.771 2.698.719 4.068.74 1.135-.05 2.409-.065 3.335-.816.489-.427.633-1.143.501-1.759-.143-.52-.687-.762-1.154-.92-2.396-.759-4.998-.484-7.372-1.341-.963-.34-1.895-.984-2.265-1.974-.517-1.402-.28-3.135.807-4.208 1.06-1.068 2.591-1.479 4.047-1.626"/></svg>