<svg xmlns="http://www.w3.org/2000/svg" width="48" height="48" fill="none"><path fill="#242938" d="M36.75 0h-25.5C5.037 0 0 5.037 0 11.25v25.5C0 42.963 5.037 48 11.25 48h25.5C42.963 48 48 42.963 48 36.75v-25.5C48 5.037 42.963 0 36.75 0"/><path fill="#00D8FF" d="M24 27.553a3.498 3.498 0 1 0 0-6.996 3.498 3.498 0 0 0 0 6.996"/><path stroke="#00D8FF" stroke-width="1.671" d="M24 16.943c4.697 0 9.06.674 12.35 1.807 3.963 1.364 6.4 3.433 6.4 5.306 0 1.951-2.583 4.149-6.84 5.559-3.217 1.066-7.451 1.622-11.91 1.622-4.57 0-8.899-.522-12.153-1.634C7.73 28.196 5.25 25.97 5.25 24.056c0-1.858 2.327-3.91 6.235-5.273 3.302-1.151 7.772-1.84 12.515-1.84Z" clip-rule="evenodd"/><path stroke="#00D8FF" stroke-width="1.671" d="M17.81 20.52c2.345-4.069 5.109-7.512 7.733-9.795 3.162-2.752 6.172-3.83 7.794-2.895 1.69.975 2.304 4.31 1.4 8.702-.684 3.32-2.318 7.266-4.545 11.129-2.284 3.96-4.899 7.448-7.488 9.71-3.275 2.864-6.442 3.9-8.1 2.944-1.61-.927-2.225-3.969-1.453-8.035.652-3.435 2.289-7.652 4.657-11.76z" clip-rule="evenodd"/><path stroke="#00D8FF" stroke-width="1.671" d="M17.815 27.671c-2.353-4.064-3.955-8.178-4.624-11.592-.805-4.114-.236-7.26 1.385-8.198 1.69-.978 4.885.156 8.238 3.134 2.535 2.25 5.138 5.636 7.372 9.494 2.29 3.956 4.006 7.964 4.674 11.337.845 4.268.161 7.53-1.496 8.488-1.608.931-4.55-.054-7.687-2.754-2.65-2.28-5.486-5.805-7.862-9.909Z" clip-rule="evenodd"/></svg>