<svg xmlns="http://www.w3.org/2000/svg" width="48" height="48" fill="none"><path fill="#764ABC" d="M36.75 0h-25.5C5.037 0 0 5.037 0 11.25v25.5C0 42.963 5.037 48 11.25 48h25.5C42.963 48 48 42.963 48 36.75v-25.5C48 5.037 42.963 0 36.75 0"/><path fill="#fff" d="M31.234 31.05a2.673 2.673 0 0 0 2.386-2.768 2.68 2.68 0 0 0-2.673-2.577h-.095a2.67 2.67 0 0 0-2.577 2.768c.048.716.334 1.336.763 1.766-1.622 3.197-4.103 5.535-7.826 7.492-2.529 1.336-5.154 1.813-7.778 1.48-2.148-.287-3.818-1.242-4.868-2.816-1.527-2.339-1.67-4.868-.381-7.397.906-1.814 2.338-3.15 3.245-3.818a26 26 0 0 1-.62-2.433c-6.92 5.01-6.204 11.787-4.105 14.984 1.575 2.386 4.772 3.865 8.304 3.865.954 0 1.908-.095 2.863-.334 6.108-1.193 10.737-4.82 13.362-10.212"/><path fill="#fff" d="M39.633 25.132c-3.627-4.247-8.972-6.585-15.08-6.585h-.764a2.62 2.62 0 0 0-2.338-1.432h-.095a2.67 2.67 0 0 0-2.577 2.768 2.68 2.68 0 0 0 2.672 2.577h.096a2.69 2.69 0 0 0 2.338-1.623h.859c3.627 0 7.063 1.05 10.164 3.102 2.386 1.575 4.104 3.627 5.059 6.108.811 2.005.763 3.961-.096 5.631-1.336 2.53-3.579 3.914-6.538 3.914-1.908 0-3.722-.573-4.676-1.003-.525.478-1.48 1.241-2.147 1.718 2.051.955 4.151 1.48 6.155 1.48 4.582 0 7.97-2.53 9.258-5.059 1.384-2.767 1.289-7.54-2.29-11.596"/><path fill="#fff" d="M15.39 31.861a2.68 2.68 0 0 0 2.672 2.577h.096a2.67 2.67 0 0 0 2.577-2.768 2.68 2.68 0 0 0-2.673-2.577h-.095c-.095 0-.239 0-.334.048-1.957-3.245-2.768-6.776-2.481-10.594.19-2.863 1.145-5.345 2.815-7.397 1.384-1.765 4.056-2.624 5.87-2.672 5.058-.095 7.205 6.204 7.348 8.733.62.143 1.67.477 2.387.716-.573-7.731-5.345-11.74-9.926-11.74-4.295 0-8.256 3.102-9.83 7.684-2.196 6.108-.764 11.977 1.908 16.606-.239.334-.382.86-.334 1.384"/></svg>