<svg xmlns="http://www.w3.org/2000/svg" width="48" height="48" fill="none"><path fill="#CD6799" d="M36.75 0h-25.5C5.037 0 0 5.037 0 11.25v25.5C0 42.963 5.037 48 11.25 48h25.5C42.963 48 48 42.963 48 36.75v-25.5C48 5.037 42.963 0 36.75 0"/><mask id="a" width="38" height="30" x="5" y="9" maskUnits="userSpaceOnUse" style="mask-type:luminance"><path fill="#fff" d="M42.75 9.938H5.25v28.107h37.5z"/></mask><g mask="url(#a)"><path fill="#fff" d="M37.52 26.093a7.76 7.76 0 0 0-3.396.787c-.349-.691-.698-1.307-.76-1.76-.068-.526-.15-.848-.068-1.478s.452-1.526.445-1.595-.082-.39-.835-.397-1.403.144-1.479.343c-.075.198-.219.65-.314 1.115-.13.685-1.507 3.129-2.294 4.409-.253-.5-.472-.938-.52-1.287-.069-.527-.15-.849-.069-1.479.082-.63.452-1.527.445-1.595-.006-.068-.082-.39-.835-.397s-1.403.144-1.478.342c-.076.199-.158.665-.315 1.116-.158.452-1.986 4.532-2.465 5.586-.246.54-.458.972-.609 1.267q.001.001-.027.054c-.13.254-.206.39-.206.39v.007c-.102.185-.212.356-.267.356-.04 0-.116-.492.014-1.163.274-1.417.924-3.622.917-3.697 0-.041.123-.424-.424-.623-.534-.198-.726.13-.774.13s-.082.117-.082.117.596-2.479-1.136-2.479c-1.082 0-2.574 1.185-3.314 2.253-.465.253-1.458.794-2.519 1.376-.403.226-.821.451-1.211.664-.028-.028-.055-.062-.082-.09-2.095-2.238-5.97-3.82-5.805-6.824.061-1.096.438-3.97 7.44-7.462 5.765-2.841 10.351-2.054 11.145-.308 1.137 2.492-2.457 7.12-8.413 7.79-2.273.253-3.464-.623-3.765-.951-.315-.343-.363-.363-.48-.295-.19.103-.068.41 0 .589.179.465.911 1.287 2.15 1.69 1.096.357 3.758.555 6.983-.69 3.607-1.397 6.428-5.279 5.6-8.53-.829-3.3-6.305-4.388-11.487-2.547-3.08 1.096-6.422 2.82-8.824 5.066-2.855 2.67-3.307 4.99-3.122 5.962.664 3.45 5.422 5.696 7.325 7.36q-.146.081-.26.143c-.952.473-4.58 2.369-5.484 4.375-1.026 2.272.165 3.902.952 4.12 2.444.678 4.956-.54 6.305-2.553s1.184-4.627.561-5.825a.1.1 0 0 0-.027-.041l.746-.439c.486-.287.965-.554 1.376-.773-.233.636-.404 1.396-.486 2.492-.103 1.287.424 2.957 1.116 3.614.308.287.67.294.903.294.808 0 1.17-.67 1.575-1.465.492-.972.938-2.101.938-2.101s-.555 3.053.951 3.053c.548 0 1.102-.712 1.349-1.075v.007q0 .002.04-.068c.055-.09.09-.144.09-.144v-.014a59 59 0 0 0 1.444-2.697c.945-1.862 1.855-4.19 1.855-4.19s.082.569.363 1.513c.164.555.507 1.164.78 1.753-.219.308-.356.479-.356.479l.007.007c-.178.233-.37.486-.582.732-.746.89-1.636 1.91-1.759 2.205-.144.349-.11.602.164.808.199.15.555.17.918.15.67-.048 1.143-.212 1.376-.315a4.6 4.6 0 0 0 1.184-.623c.733-.54 1.178-1.314 1.136-2.334-.02-.562-.205-1.123-.43-1.65.068-.096.13-.192.198-.287 1.157-1.691 2.053-3.546 2.053-3.546s.082.568.363 1.512c.137.48.418 1 .664 1.506-1.088.884-1.76 1.91-1.999 2.581-.431 1.246-.096 1.807.541 1.937.288.062.698-.075 1-.205a4.6 4.6 0 0 0 1.266-.65c.732-.541 1.438-1.294 1.396-2.314-.02-.465-.143-.924-.315-1.37.925-.382 2.116-.595 3.636-.417 3.258.384 3.902 2.417 3.778 3.273-.123.855-.808 1.32-1.034 1.465-.225.143-.3.191-.28.294.027.15.137.143.328.116.268-.048 1.712-.691 1.773-2.266.103-2.012-1.814-4.21-5.202-4.19m-25.137 8.475c-1.082 1.177-2.588 1.622-3.238 1.246-.698-.404-.424-2.143.904-3.389.807-.76 1.848-1.465 2.54-1.896.157-.096.39-.233.67-.404l.075-.041.165-.103c.486 1.78.02 3.348-1.116 4.587m7.872-5.354c-.376.918-1.163 3.266-1.643 3.136-.41-.11-.664-1.89-.082-3.649.295-.883.918-1.937 1.28-2.348.59-.657 1.24-.876 1.397-.61.198.35-.719 2.896-.952 3.471m6.497 3.108c-.158.082-.308.137-.377.096-.048-.027.069-.137.069-.137s.814-.876 1.136-1.273c.185-.233.404-.507.637-.815v.09c0 1.047-1.013 1.752-1.465 2.04m5.01-1.143c-.116-.082-.095-.356.295-1.212.15-.335.507-.896 1.116-1.437.068.219.116.431.11.63-.007 1.321-.952 1.814-1.52 2.019"/></g></svg>