<svg xmlns="http://www.w3.org/2000/svg" width="48" height="48" fill="none"><path fill="url(#a)" d="M36.75 0h-25.5C5.037 0 0 5.037 0 11.25v25.5C0 42.963 5.037 48 11.25 48h25.5C42.963 48 48 42.963 48 36.75v-25.5C48 5.037 42.963 0 36.75 0"/><path fill="#fff" d="m2.153 24.202 9.432 3.822V30.7L.42 25.527v-1.57zm9.432-3.139L2.167 24.94l-1.747.19v-1.583l11.165-5.16zM45.258 24.748l-9.705-3.78V18.36l11.657 5.16v1.597zm-9.705 3.331 9.732-3.863 1.925-.287v1.584l-11.657 5.173z"/><path fill="#B956A6" fill-rule="evenodd" d="M33.014 11.456c-.054.856-.44 1.75-.333 2.583.674 1.19 2.157 1.38 3.38 1.463.848.151.837-.41.78-1.04l.01-3.024c-1.279.005-2.559-.012-3.837.018m-10.088 2.395c-2.083.353-4.194 1.348-5.927 2.546-1.394 1.086 1.198 2.138 2.138 2.314 1.892.023 3.57-1.253 4.812-2.578.406-.557.913-1.41.403-2.055-.39-.337-.955-.255-1.426-.227m4.432 3.028c-1.713.327-3.342 1.032-4.783 2.015-1.058.332-1.929 1.493-.619 2.074 1.375 1.096 2.97.827 4.236.087 1.16-.689 2.413-1.54 2.95-2.837.506-1.422-.802-1.475-1.784-1.338m4.858 5.51c-.319 1.332-1.66 1.937-2.374 2.993-.583.77-.313 1.677.351 2.283.323.67.89 1.045 1.499.463 1.566-1.065 1.999-3.139 1.934-4.936.115-.742-.736-.07-1.41-.803m-5.96 2.502c-2.079.356-4.159 1.369-5.892 2.565-1.346 1.084 1.188 2.096 2.136 2.257 1.927.002 3.646-1.24 4.865-2.65.423-.56.937-1.648.098-2.093-.375-.159-.811-.112-1.206-.08" clip-rule="evenodd"/><path fill="#FCCC44" fill-rule="evenodd" d="M17 16.398c-1.6.64-3.142 1.417-4.666 2.23-.283 1.053-.056 2.357-.13 3.511-.005 4.747-.002 9.494-.003 14.24h3.53c.711-.67 1.604-1.161 2.378-1.77 2.98-2.138 5.96-4.283 8.935-6.415.22.099.08-1.288-.401-.325-1.139 1.071-2.65 1.953-4.249 1.866-.907-.298-2.37-.805-2.38-1.917.64-.752-1.178.394-1.675.558-1.617.776-3.195 1.643-4.815 2.405.39-.418 1.118-.808 1.634-1.223 3.689-2.647 7.376-5.306 11.074-7.951.711-.5 1.398-1.044 2.131-1.511.067.258.193-1.236-.353-.316-1.111 1.102-2.61 1.922-4.192 1.933-.889-.27-2.783-.916-2.361-2.064.205-.403-1.91.86-.976.148.995-.727 1.998-1.442 3.001-2.161.507-.038.399-1.92-.29-.706-1.155 1.016-2.674 1.945-4.266 1.725-.894-.258-1.968-.757-2.293-1.692-.107-.224.602-.574.367-.565m6.626 1.16c.16-.092-.089.255 0 0" clip-rule="evenodd"/><path fill="#62777F" fill-rule="evenodd" d="M33.731 15.14c-.5 2.385-1.045 4.88-1.514 7.249 1.348 1.7 1.479-1.074 1.715-1.858.381-1.639.832-2.876.88-4.573.102-.58-.579-.93-1.08-.817m1.547 1.87c.062.046-.042.245 0 0m-1.573 5.347c.065.14.065-.14 0 0" clip-rule="evenodd"/><path fill="#4E5E67" fill-rule="evenodd" d="M34.615 15.41c.421 2.363-.973 5.234-1.428 7.462 1.035-.762 1.834-4.217 2.039-5.57.052-.155.117-.544.131-.558.065-.328.672-.885.705-1.242.352-.25-1.735-.29-1.447-.092m-.858 6.947c-.065.14-.065-.14 0 0" clip-rule="evenodd"/><path fill="#DC9624" fill-rule="evenodd" d="M17.035 16.437c-.583.584-.364.441.07-.044zm6.312.29c-.676 1.015-3.114 1.864-3.42 1.93 1.465-.274 2.832-1.187 3.794-2.255-.153.068-.244.228-.374.324m-6.713.329c.365.876 1.69 1.458 2.333 1.594-.879-.283-1.913-.785-2.333-1.594m6.94.507c-.184.217-.84.542-1.185.86-.74.547-1.507 1.054-2.24 1.615.467-.02 1.834-1.041 1.133-.006.594 1.022 1.886 1.733 3.065 1.668 1.556-.245 2.991-1.105 4.023-2.302-1.253 1.24-2.908 2.406-4.74 2.245-.887-.205-3.31-1.456-1.69-2.334.572-.47 1.558-.716 1.67-1.542-.024-.103.168-.204-.036-.204m-4.436 1.148c.59.077.59-.077 0 0m9.188 1.41c-2.34 1.63-4.646 3.325-6.965 4.984-2.63 1.881-5.247 3.77-7.875 5.65.988-.334 1.978-.984 2.96-1.434 1.352-.715 2.777-1.28 4.042-2.148 2.501-1.473 5.146-2.875 7.07-5.128.42-.492.84-1.285.859-1.818-.06.017-.015-.213-.091-.105m-7.961 7.335c-.421.476-.592.816-.155.21-.008.071.354-.375.155-.21m6.404.228c-1.109 1.169-2.75 2.012-4.288 2.07 1.78.012 3.384-1.044 4.59-2.29-.08-.095-.24.223-.302.22m.339.367c-3.726 2.712-7.58 5.525-11.318 8.228.59.184 1.871.27 2.456-.483 1.245-.86 2.645-1.49 3.894-2.362 1.81-1.173 3.746-2.456 4.773-4.429.049-.264.413-.74.195-.954m-7.09.172c.173.73 2.334 1.568 2.1 1.407-.797-.279-1.588-.714-2.1-1.407" clip-rule="evenodd"/><defs><linearGradient id="a" x1="0" x2="48" y1="48" y2="0" gradientUnits="userSpaceOnUse"><stop stop-color="#DB7093"/><stop offset="1" stop-color="#F3B661"/></linearGradient></defs></svg>