<svg xmlns="http://www.w3.org/2000/svg" width="48" height="48" fill="none"><path fill="#242938" d="M36.75 0h-25.5C5.037 0 0 5.037 0 11.25v25.5C0 42.963 5.037 48 11.25 48h25.5C42.963 48 48 42.963 48 36.75v-25.5C48 5.037 42.963 0 36.75 0"/><path fill="url(#a)" fill-rule="evenodd" d="M15.563 20.625q1.687-6.75 8.437-6.75c6.75 0 7.594 5.063 10.969 5.906q3.375.845 5.906-2.531Q39.187 24 32.438 24c-6.75 0-7.594-5.062-10.97-5.906q-3.375-.845-5.905 2.531M7.124 30.75Q8.813 24 15.563 24c6.75 0 7.593 5.063 10.968 5.906q3.375.845 5.907-2.531-1.688 6.75-8.438 6.75c-6.75 0-7.594-5.062-10.969-5.906q-3.375-.845-5.906 2.531" clip-rule="evenodd"/><defs><linearGradient id="a" x1="16.219" x2="30.656" y1="13.875" y2="34.781" gradientUnits="userSpaceOnUse"><stop stop-color="#32B1C1"/><stop offset="1" stop-color="#14C6B7"/></linearGradient></defs></svg>