<svg xmlns="http://www.w3.org/2000/svg" width="48" height="48" fill="none"><path fill="#007ACC" d="M36.75 0h-25.5C5.037 0 0 5.037 0 11.25v25.5C0 42.963 5.037 48 11.25 48h25.5C42.963 48 48 42.963 48 36.75v-25.5C48 5.037 42.963 0 36.75 0"/><path fill="#fff" d="m10.615 24.16-.015 1.965h6.247v17.752h4.42V26.125h6.247v-1.928c0-1.066-.023-1.958-.053-1.98-.023-.031-3.825-.046-8.435-.039l-8.388.023zM38.731 22.145c1.219.305 2.148.846 3.002 1.73.442.472 1.097 1.333 1.15 1.539.015.06-2.072 1.463-3.337 2.248-.045.03-.228-.168-.434-.473-.617-.899-1.265-1.288-2.255-1.356-1.456-.1-2.393.663-2.385 1.935 0 .374.053.594.206.9.32.662.914 1.058 2.78 1.866 3.437 1.478 4.907 2.453 5.822 3.84 1.02 1.546 1.249 4.015.556 5.851-.762 1.996-2.652 3.353-5.31 3.802-.824.145-2.774.122-3.658-.038-1.928-.343-3.756-1.295-4.884-2.544-.442-.488-1.303-1.76-1.25-1.852.023-.03.222-.152.442-.282.214-.122 1.022-.587 1.784-1.029l1.379-.8.289.427c.404.617 1.288 1.463 1.821 1.745 1.531.808 3.634.693 4.67-.236.442-.404.625-.823.625-1.44 0-.556-.068-.8-.358-1.22-.373-.533-1.135-.982-3.299-1.92-2.476-1.066-3.543-1.729-4.518-2.78-.564-.61-1.097-1.585-1.318-2.4-.183-.678-.229-2.377-.084-3.063.51-2.392 2.316-4.061 4.922-4.556.846-.16 2.811-.1 3.642.106"/></svg>